# xmcd CD database file
#
# Track frame offsets:
#	150
#	13765
#	33992
#	59030
#	74050
#	100042
#	117725
#	129950
#	148022
#	170030
#
# Disc length: 2634 seconds
#
# Revision: 0
# Processed by: cddbd v1.4PL0 Copyright (c) Steve Scherf et al.
# Submitted via: CDex 1.40Beta5
#
DISCID=990a480a
DTITLE=BRAKE DOWN(Fusanosuke Kondoh) - BRAKE DOWN LIVE
DYEAR=1900
DGENRE=Blues
TTITLE0=It Takes time
TTITLE1=Ten Years Ago
TTITLE2=They call me Lazy
TTITLE3=Who
TTITLE4=Night Life
TTITLE5=I'm Gonna Leave You
TTITLE6=Kiddeo
TTITLE7=That's All Right
TTITLE8=Part Time Love
TTITLE9=Stone Crazy
EXTD=ID3G:   0
EXTT0=
EXTT1=
EXTT2=
EXTT3=
EXTT4=
EXTT5=
EXTT6=
EXTT7=
EXTT8=
EXTT9=
PLAYORDER=
